<?xml version="1.0" encoding="UTF-8" standalone="no"?>
<!-- Created with Inkscape (http://www.inkscape.org/) -->

<svg
   width="250"
   height="250"
   viewBox="0 0 250 250.00001"
   version="1.1"
   id="svg5"
   inkscape:version="1.2.2 (b0a8486541, 2022-12-01)"
   sodipodi:docname="dirt.svg"
   xmlns:inkscape="http://www.inkscape.org/namespaces/inkscape"
   xmlns:sodipodi="http://sodipodi.sourceforge.net/DTD/sodipodi-0.dtd"
   xmlns="http://www.w3.org/2000/svg"
   xmlns:svg="http://www.w3.org/2000/svg">
  <sodipodi:namedview
     id="namedview7"
     pagecolor="#ffffff"
     bordercolor="#000000"
     borderopacity="0.25"
     inkscape:showpageshadow="2"
     inkscape:pageopacity="0.0"
     inkscape:pagecheckerboard="0"
     inkscape:deskcolor="#d1d1d1"
     inkscape:document-units="px"
     showgrid="false"
     inkscape:zoom="1.5981902"
     inkscape:cx="158.61691"
     inkscape:cy="148.60559"
     inkscape:window-width="1918"
     inkscape:window-height="1056"
     inkscape:window-x="0"
     inkscape:window-y="22"
     inkscape:window-maximized="1"
     inkscape:current-layer="layer1" />
  <defs
     id="defs2" />
  <g
     inkscape:label="Layer 1"
     inkscape:groupmode="layer"
     id="layer1">
    <rect
       style="fill:#352a1c;fill-opacity:1;stroke-width:2.24821;stroke-linecap:round;stroke-linejoin:round"
       id="rect4167"
       width="305.85333"
       height="282.5864"
       x="-30.604113"
       y="-285.84116"
       ry="10.269248"
       transform="scale(1,-1)" />
    <path
       id="rect6100"
       style="fill:#261e14;fill-opacity:1;stroke-width:12.8755;stroke-linecap:square"
       d="M 195.48371,-37.20341 C 57.591152,-48.66221 -45.422974,-43.6916 -66.215331,19.72014 -115.69487,111.84215 29.948338,82.08608 157.20213,82.08608 297.30629,77.32257 415.42144,116.06071 338.01193,25.16252 296.91358,-34.75894 278.91628,-32.94269 195.48371,-37.20341 Z"
       sodipodi:nodetypes="ccccc" />
    <path
       id="path6944"
       style="fill:#5f4528;fill-opacity:1;stroke-width:11.3335;stroke-linecap:square"
       d="M 190.92985,-33.2596 C 63.193524,-42.84398 -32.233308,-38.68645 -51.494214,14.35252 -97.329451,91.4054 37.586658,66.51677 155.4679,66.51677 285.25296,62.53246 394.6686,94.93389 322.96053,18.90466 284.88916,-31.21499 268.21737,-29.69583 190.92985,-33.2596 Z"
       sodipodi:nodetypes="ccccc" />
    <path
       id="path3826"
       style="fill:#997750;fill-opacity:1;stroke-width:1.22136;stroke-linecap:round;stroke-linejoin:round"
       d="M 29.946175,60.00923 C 23.308115,59.67161 16.616293,58.69705 10.876126,56.57177 8.2963202,55.573 5.7048452,54.40823 4.2275084,52.73259 2.6754938,51.06901 2.8986356,48.95466 4.3599347,47.2995 c 1.3907254,-1.64427 4.0864351,-2.88246 7.1299923,-3.08983 3.393771,-0.2774 7.027316,0.55071 9.147946,2.20957 2.267191,0.97347 5.03622,1.31572 7.681831,1.70655 3.734953,-1.20351 8.680175,-0.59634 11.485888,1.30692 2.380995,1.509 3.310036,3.83009 2.162643,5.8188 -1.565168,3.03101 -6.838011,5.13181 -12.02206,4.75772 z" />
    <path
       id="path3828"
       style="fill:#997750;fill-opacity:1;stroke-width:1.28573;stroke-linecap:round;stroke-linejoin:round"
       d="m 56.018972,49.74865 c -3.945623,-0.38268 -7.046678,-5.40676 -6.321107,-10.11709 0.451911,-3.82354 3.194546,-7.01761 6.346931,-7.44682 1.918438,-0.70804 3.12772,-2.82161 4.171897,-4.76208 1.198259,-2.28168 2.502128,-4.73079 4.613594,-5.87503 2.918962,-1.69741 6.816651,-0.71663 8.732785,2.53044 1.838867,2.93034 1.971359,7.25026 0.307299,10.3343 -1.516309,3.36066 -3.565345,6.32343 -5.770219,9.04387 -2.921564,3.37399 -6.673215,5.97324 -10.761696,6.28641 -0.439595,0.0241 -0.879686,0.0208 -1.319484,0.006 z" />
    <path
       id="path3830"
       style="fill:#997750;fill-opacity:1;stroke-width:1.45165;stroke-linecap:round;stroke-linejoin:round"
       d="m 81.522781,21.29363 c -4.928285,-0.54574 -8.790555,-5.70075 -7.809919,-10.54719 0.67082,-3.74203 3.928513,-6.65906 7.570919,-7.52416 7.359836,-2.27045001 14.953728,-4.21868001 22.713769,-4.17517001 1.19588,6.5e-4 2.40393,0.17005 3.47199,0.735 4.01192,1.92825001 6.38257,6.93953001 4.91038,11.19122001 -1.63832,4.54359 -6.60276,7.67251 -11.44085,7.16405 -1.013671,-0.0984 -1.974071,-0.46027 -2.931651,-0.76151 -0.97921,-0.0407 -1.88411,0.33865 -2.87054,0.47883 -3.969264,0.8617 -7.749377,2.36014 -11.656794,3.43432 -0.648768,0.0586 -1.308502,0.062 -1.957304,0.004 z" />
    <path
       id="path3832"
       style="fill:#997750;fill-opacity:1;stroke-width:1.07882;stroke-linecap:round;stroke-linejoin:round"
       d="M 135.16577,9.93314 C 130.6984,9.68498 126.98098,6.7504 127.5797,3.80763 c 0.50204,-2.73964 4.52204,-4.92084 8.6852,-4.84231 7.10495,-0.53167 14.23743,-0.8922 21.37716,-1.1465 4.64069,-0.93472 10.06877,1.36030999 10.68083,4.52938 0.73134,2.95757 -3.06978,5.99148 -7.61981,6.10251 -3.8256,0.24328 -7.68587,0.14422 -11.50229,0.46467 -4.27153,0.205 -8.52553,0.52324 -12.73862,1.0229 -0.43196,0.0146 -0.86488,0.0162 -1.2964,-0.005 z" />
    <path
       id="path3834"
       style="fill:#997750;fill-opacity:1;stroke-width:1.5217;stroke-linecap:round;stroke-linejoin:round"
       d="m 205.15894,52.30584 c -6.27818,-0.20061 -11.34945,-4.76605 -10.39033,-9.11995 0.70118,-3.44892 4.92048,-6.18521 9.64038,-6.88964 1.80811,-0.31861 3.56035,-0.80471 5.29035,-1.29574 1.36437,-0.40484 2.69043,-0.88363 3.90674,-1.48112 1.80966,-4.0396 8.84913,-6.32938 14.39881,-4.78479 5.199,1.2941 8.42654,5.56554 7.08691,9.34281 -0.93831,3.76088 -4.7017,6.90618 -9.2203,8.86164 -5.60645,2.54178 -12.02941,3.96518 -18.39506,5.22146 -0.76283,0.10451 -1.54067,0.15213 -2.3175,0.14533 z" />
    <path
       id="path3836"
       style="fill:#997750;fill-opacity:1;stroke-width:1.35144;stroke-linecap:round;stroke-linejoin:round"
       d="M 34.737195,18.39737 C 30.250001,18.05408 26.712439,13.349 27.349096,8.83613 27.829591,4.76062 31.543579,1.4756 35.525443,1.36385 c 2.949746,-0.33313 5.837316,-1.06990001 8.773509,-1.49985001 1.312123,-0.19854 2.635496,-0.44783 3.96259,-0.43385 4.630475,0.70067 7.997117,5.93402001 6.820646,10.55802001 -0.884523,3.45123 -4.099737,5.9098 -7.479594,6.39176 -3.683378,0.63193 -7.351382,1.36511 -11.042954,1.94178 -0.604149,0.0772 -1.214085,0.10629 -1.822445,0.0757 z" />
    <path
       id="path3838"
       style="fill:#997750;fill-opacity:1;stroke-width:1.28134;stroke-linecap:round;stroke-linejoin:round"
       d="m 97.925031,50.43397 c -1.133746,3.4155 -2.035588,7.14966 -3.886703,9.89134 -1.081979,1.62615 -2.590348,2.55904 -4.12728,2.58859 -2.335531,0.11337 -4.701814,-1.71444 -5.84488,-4.77839 -1.352941,-3.40576 -1.127465,-7.98195 0.500184,-11.09941 0.616044,-1.39359 0.971405,-3.00172 1.576755,-4.40814 0.973089,-2.56559 2.685888,-4.58907 4.677992,-5.01199 2.084489,-0.50751 4.316209,0.5904 5.745498,2.91468 1.659022,2.55054 2.378223,6.59513 1.358434,9.90332 z" />
    <path
       id="path3840"
       style="fill:#997750;fill-opacity:1;stroke-width:1.46605;stroke-linecap:round;stroke-linejoin:round"
       d="m 153.11439,37.62383 c -4.02804,-0.20971 -7.9404,-1.31625 -11.922,-1.88605 -3.79024,-1.00838 -7.02691,-4.4816 -7.31647,-8.58846 -0.35483,-4.94495 3.77906,-9.80494 8.63747,-9.83957 2.75156,-0.009 5.30246,1.32854 8.04323,1.43497 3.01871,0.40467 6.22287,1.00516 8.61037,3.10255 3.65192,3.42985 3.57134,10.08176 -0.10363,13.46302 -1.58363,1.53217 -3.76765,2.43071 -5.94897,2.31354 z" />
    <path
       id="path3842"
       style="fill:#997750;fill-opacity:1;stroke-width:1.71723;stroke-linecap:round;stroke-linejoin:round"
       d="m 189.94088,24.95423 c -9.35334,-0.60682 -15.90229,-5.09638 -12.9445,-8.86289 1.76714,-2.49158 7.2407,-4.29377 13.16349,-4.85824 5.39512,-0.91453 11.18494,-1.86265 17.11154,-1.45815 9.21607,0.74988 15.32498,5.29613 12.08862,8.98849 -1.73914,2.16214 -6.4338,3.69221 -11.48176,4.38217 -5.61821,1.0782 -11.70422,1.85311 -17.93739,1.80862 z" />
    <path
       id="path3844"
       style="fill:#997750;fill-opacity:1;stroke-width:0.996099;stroke-linecap:round;stroke-linejoin:round"
       d="m 118.33968,42.21879 c -4.14361,-0.18599 -7.59727,-2.67692 -7.06247,-5.18051 0.24246,-2.17555 3.25687,-4.12888 6.86614,-4.3574 2.78152,-0.37106 5.89786,-0.40794 8.41413,0.50747 3.3977,1.30085 4.49683,4.30224 2.41151,6.3694 -1.23176,1.37997 -3.68772,2.25229 -6.22615,2.4398 -1.44357,0.18881 -2.9283,0.25352 -4.40316,0.22124 z" />
    <path
       id="path4096"
       style="fill:#997750;fill-opacity:1;stroke-width:0.996099;stroke-linecap:round;stroke-linejoin:round"
       d="m 159.67806,56.20468 c -4.14361,-0.18599 -7.59727,-2.67692 -7.06247,-5.18051 0.24246,-2.17555 3.25687,-4.12888 6.86614,-4.3574 2.78152,-0.37106 5.89786,-0.40794 8.41413,0.50747 3.3977,1.30085 4.49683,4.30224 2.41151,6.3694 -1.23176,1.37997 -3.68772,2.25229 -6.22615,2.4398 -1.44357,0.18881 -2.9283,0.25352 -4.40316,0.22124 z" />
    <path
       id="path4187"
       style="fill:#261e14;fill-opacity:1;stroke-width:1.93035;stroke-linecap:round;stroke-linejoin:round"
       d="m 127.19028,142.40678 c -10.49749,-0.68321 -17.84754,-5.73795 -14.52794,-9.97862 1.98331,-2.80524 8.12642,-4.8343 14.77371,-5.46983 6.05508,-1.02966 12.55314,-2.09714 19.20471,-1.64172 10.34342,0.84428 17.1996,5.96285 13.56736,10.12003 -1.95188,2.43433 -7.22082,4.15702 -12.88627,4.93383 -6.30545,1.21394 -13.13593,2.0864 -20.13157,2.03631 z" />
    <path
       id="path4189"
       style="fill:#261e14;fill-opacity:1;stroke-width:1.93035;stroke-linecap:round;stroke-linejoin:round"
       d="m 20.778354,171.00027 c -10.497485,-0.68321 -17.8475343,-5.73795 -14.5279333,-9.97862 1.983305,-2.80524 8.1264173,-4.8343 14.7737113,-5.46983 6.055077,-1.02966 12.553135,-2.09713 19.204705,-1.64171 10.343428,0.84428 17.199609,5.96284 13.567362,10.12003 -1.95188,2.43432 -7.220814,4.15701 -12.886267,4.93383 -6.305457,1.21393 -13.135937,2.08639 -20.131578,2.0363 z" />
    <path
       id="path4191"
       style="fill:#261e14;fill-opacity:1;stroke-width:1.93035;stroke-linecap:round;stroke-linejoin:round"
       d="m 103.12635,214.60974 c -10.497494,-0.68321 -17.847544,-5.73795 -14.527934,-9.97861 1.9833,-2.80524 8.12642,-4.83431 14.773714,-5.46983 6.05508,-1.02966 12.55314,-2.09714 19.20471,-1.64172 10.34342,0.84428 17.1996,5.96285 13.56735,10.12003 -1.95188,2.43433 -7.22081,4.15701 -12.88626,4.93383 -6.30546,1.21393 -13.13594,2.08639 -20.13158,2.0363 z" />
    <path
       id="path4193"
       style="fill:#261e14;fill-opacity:1;stroke-width:1.93035;stroke-linecap:round;stroke-linejoin:round"
       d="m 17.498785,225.26183 c -10.4974853,-0.68321 -17.8475343,-5.73795 -14.5279333,-9.97861 1.983305,-2.80524 8.1264173,-4.83431 14.7737113,-5.46984 6.055077,-1.02965 12.553136,-2.09713 19.204706,-1.64171 10.343423,0.84428 17.199605,5.96285 13.567357,10.12003 -1.951879,2.43433 -7.220813,4.15701 -12.886263,4.93383 -6.305457,1.21393 -13.135936,2.08639 -20.131578,2.0363 z" />
    <path
       id="path4195"
       style="fill:#261e14;fill-opacity:1;stroke-width:1.93035;stroke-linecap:round;stroke-linejoin:round"
       d="m 177.94959,253.34524 c -10.49748,-0.68321 -17.84753,-5.73795 -14.52793,-9.97862 1.9833,-2.80523 8.12642,-4.8343 14.77371,-5.46983 6.05508,-1.02965 12.55313,-2.09713 19.2047,-1.64171 10.34343,0.84428 17.19961,5.96285 13.56736,10.12003 -1.95188,2.43432 -7.22081,4.15701 -12.88626,4.93383 -6.30546,1.21393 -13.13594,2.08639 -20.13158,2.0363 z" />
    <path
       id="path4197"
       style="fill:#261e14;fill-opacity:1;stroke-width:1.93035;stroke-linecap:round;stroke-linejoin:round"
       d="m 194.7235,203.40649 c -10.49749,-0.68321 -17.84754,-5.73795 -14.52793,-9.97862 1.9833,-2.80524 8.12641,-4.8343 14.77371,-5.46983 6.05507,-1.02966 12.55313,-2.09714 19.2047,-1.64171 10.34343,0.84428 17.19961,5.96284 13.56736,10.12002 -1.95188,2.43433 -7.22081,4.15702 -12.88626,4.93383 -6.30546,1.21394 -13.13594,2.0864 -20.13158,2.03631 z" />
    <path
       id="path4199"
       style="fill:#261e14;fill-opacity:1;stroke-width:1.93035;stroke-linecap:round;stroke-linejoin:round"
       d="m 212.19645,164.50704 c -10.49749,-0.68321 -17.84754,-5.73795 -14.52794,-9.97862 1.98331,-2.80524 8.12642,-4.8343 14.77371,-5.46983 6.05508,-1.02966 12.55314,-2.09714 19.20471,-1.64172 10.34342,0.84429 17.1996,5.96285 13.56736,10.12003 -1.95188,2.43433 -7.22082,4.15702 -12.88627,4.93383 -6.30545,1.21394 -13.13593,2.0864 -20.13157,2.03631 z" />
    <path
       id="path4201"
       style="fill:#261e14;fill-opacity:1;stroke-width:1.93035;stroke-linecap:round;stroke-linejoin:round"
       d="M 75.357075,99.60693 C 64.859589,98.92372 57.50954,93.86898 60.829141,89.62831 c 1.983305,-2.80523 8.126417,-4.8343 14.773711,-5.46983 6.055074,-1.02965 12.553134,-2.09713 19.204704,-1.64171 10.343424,0.84428 17.199604,5.96285 13.567364,10.12003 -1.95188,2.43432 -7.22082,4.15701 -12.886274,4.93383 -6.30545,1.21393 -13.13593,2.08639 -20.131571,2.0363 z" />
    <path
       id="path4203"
       style="fill:#261e14;fill-opacity:1;stroke-width:1.93035;stroke-linecap:round;stroke-linejoin:round"
       d="m 27.193963,133.72674 c -10.497485,-0.68321 -17.8475343,-5.73796 -14.527933,-9.97862 1.983305,-2.80524 8.126417,-4.8343 14.773711,-5.46983 6.055077,-1.02966 12.553136,-2.09714 19.204706,-1.64172 10.343423,0.84428 17.199603,5.96285 13.567357,10.12003 -1.951879,2.43433 -7.220813,4.15701 -12.886263,4.93383 -6.305457,1.21394 -13.135937,2.0864 -20.131578,2.03631 z" />
    <path
       id="path4205"
       style="fill:#261e14;fill-opacity:1;stroke-width:1.93035;stroke-linecap:round;stroke-linejoin:round"
       d="m 172.9495,96.80597 c -10.49749,-0.68321 -17.84753,-5.73795 -14.52793,-9.97862 1.9833,-2.80523 8.12641,-4.8343 14.77371,-5.46983 6.05507,-1.02965 12.55313,-2.09713 19.2047,-1.64171 10.34343,0.84428 17.19961,5.96285 13.56736,10.12003 -1.95188,2.43432 -7.22081,4.15701 -12.88626,4.93383 -6.30546,1.21393 -13.13594,2.08639 -20.13158,2.0363 z" />
    <path
       id="path4207"
       style="fill:#261e14;fill-opacity:1;stroke-width:1.93035;stroke-linecap:round;stroke-linejoin:round"
       d="m 216.75967,114.74624 c -10.49748,-0.68321 -17.84753,-5.73795 -14.52793,-9.97861 1.9833,-2.80524 8.12642,-4.8343 14.77371,-5.46983 6.05508,-1.02966 12.55314,-2.09714 19.20471,-1.64172 10.34342,0.84428 17.1996,5.96285 13.56735,10.12003 -1.95188,2.43433 -7.22081,4.15701 -12.88626,4.93383 -6.30546,1.21393 -13.13594,2.08639 -20.13158,2.0363 z" />
    <path
       id="path4848"
       style="fill:#261e14;fill-opacity:1;stroke-width:1.93035;stroke-linecap:round;stroke-linejoin:round"
       d="m 108.86525,188.83055 c 10.51644,0.25679 18.28579,-4.12161 15.35561,-8.64185 -1.72654,-2.97119 -7.66525,-5.5407 -14.22977,-6.76723 -5.93969,-1.56621 -12.317254,-3.20965 -18.982834,-3.34993 -10.377275,-0.0826 -17.660383,4.40347 -14.41139,8.86847 1.728152,2.59894 6.82333,4.78523 12.39738,6.06482 6.17272,1.77211 12.898684,3.25099 19.871004,3.82572 z" />
    <path
       id="path4850"
       style="fill:#261e14;fill-opacity:1;stroke-width:1.93035;stroke-linecap:round;stroke-linejoin:round"
       d="m 172.95521,178.77442 c 10.51644,0.2568 18.28579,-4.12161 15.35562,-8.64185 -1.72655,-2.97119 -7.66526,-5.5407 -14.22978,-6.76723 -5.93969,-1.56621 -12.31724,-3.20965 -18.98283,-3.34993 -10.37728,-0.0826 -17.66039,4.40347 -14.41139,8.86846 1.72815,2.59895 6.82333,4.78525 12.39738,6.06483 6.17273,1.77212 12.89868,3.25099 19.871,3.82572 z" />
    <path
       id="path4852"
       style="fill:#261e14;fill-opacity:1;stroke-width:1.93035;stroke-linecap:round;stroke-linejoin:round"
       d="m 136.85081,247.96968 c 10.51644,0.2568 18.28579,-4.12161 15.35561,-8.64185 -1.72654,-2.97119 -7.66525,-5.5407 -14.22977,-6.76723 -5.93969,-1.56621 -12.31725,-3.20965 -18.98282,-3.34993 -10.37729,-0.0826 -17.66039,4.40347 -14.41141,8.86846 1.72816,2.59895 6.82333,4.78524 12.39738,6.06483 6.17273,1.77212 12.89869,3.25099 19.87101,3.82572 z" />
    <path
       id="path4854"
       style="fill:#261e14;fill-opacity:1;stroke-width:1.93035;stroke-linecap:round;stroke-linejoin:round"
       d="m 213.11853,235.75388 c 10.51644,0.2568 18.28579,-4.12161 15.35561,-8.64185 -1.72655,-2.97119 -7.66525,-5.5407 -14.22978,-6.76723 -5.93969,-1.56621 -12.31725,-3.20965 -18.98283,-3.34993 -10.37727,-0.0826 -17.66039,4.40347 -14.41139,8.86846 1.72815,2.59895 6.82333,4.78525 12.39738,6.06483 6.17272,1.77212 12.89869,3.25099 19.87101,3.82572 z" />
    <path
       id="path4856"
       style="fill:#261e14;fill-opacity:1;stroke-width:1.93035;stroke-linecap:round;stroke-linejoin:round"
       d="m 47.164627,257.42932 c 10.516443,0.2568 18.285794,-4.12161 15.355613,-8.64184 -1.726543,-2.97119 -7.665252,-5.54071 -14.229778,-6.76724 -5.939691,-1.56621 -12.31725,-3.20964 -18.982828,-3.34993 -10.37728,-0.0826 -17.660385,4.40347 -14.411393,8.86847 1.728151,2.59894 6.823331,4.78524 12.397375,6.06483 6.172726,1.77211 12.89869,3.25098 19.871011,3.82571 z" />
    <path
       id="path4858"
       style="fill:#261e14;fill-opacity:1;stroke-width:1.93035;stroke-linecap:round;stroke-linejoin:round"
       d="m 52.298712,204.60161 c 10.516439,0.25679 18.285791,-4.12162 15.355611,-8.64185 -1.726544,-2.97119 -7.665251,-5.5407 -14.229775,-6.76723 -5.939692,-1.56621 -12.31725,-3.20965 -18.982828,-3.34994 -10.377281,-0.0826 -17.660386,4.40348 -14.411394,8.86847 1.728152,2.59895 6.823332,4.78524 12.397374,6.06483 6.172728,1.77211 12.898692,3.25099 19.871012,3.82572 z" />
    <path
       id="path4860"
       style="fill:#261e14;fill-opacity:1;stroke-width:1.93035;stroke-linecap:round;stroke-linejoin:round"
       d="m 85.413926,159.77038 c 10.51644,0.25679 18.285804,-4.12162 15.355614,-8.64185 -1.726544,-2.97119 -7.665254,-5.54072 -14.229774,-6.76724 -5.939694,-1.56622 -12.317253,-3.20964 -18.982831,-3.34994 -10.37728,-0.0826 -17.660386,4.40348 -14.411394,8.86848 1.728152,2.59895 6.823332,4.78524 12.397375,6.06483 6.172728,1.77211 12.898691,3.25099 19.87101,3.82572 z" />
    <path
       id="path4862"
       style="fill:#261e14;fill-opacity:1;stroke-width:1.93035;stroke-linecap:round;stroke-linejoin:round"
       d="m 151.85967,114.89228 c 10.51644,0.25679 18.28579,-4.12161 15.3556,-8.64185 -1.72654,-2.97119 -7.66524,-5.5407 -14.22977,-6.76723 -5.93969,-1.56621 -12.31725,-3.20965 -18.98282,-3.34994 -10.37729,-0.0826 -17.66039,4.40347 -14.4114,8.86847 1.72815,2.59894 6.82333,4.78524 12.39737,6.06483 6.17273,1.77211 12.8987,3.25099 19.87102,3.82572 z" />
    <path
       id="path4864"
       style="fill:#261e14;fill-opacity:1;stroke-width:1.93035;stroke-linecap:round;stroke-linejoin:round"
       d="m 211.5293,137.47227 c 10.51643,0.2568 18.28579,-4.12161 15.3556,-8.64185 -1.72653,-2.9712 -7.66524,-5.54071 -14.22977,-6.76723 -5.93969,-1.56622 -12.31725,-3.20965 -18.98282,-3.34994 -10.37729,-0.0826 -17.66039,4.40347 -14.41139,8.86847 1.72814,2.59894 6.82333,4.78525 12.39736,6.06483 6.17273,1.77211 12.89869,3.25099 19.87102,3.82572 z" />
    <path
       id="path4866"
       style="fill:#261e14;fill-opacity:1;stroke-width:1.93035;stroke-linecap:round;stroke-linejoin:round"
       d="m 98.738576,126.66463 c 10.516444,0.25679 18.285794,-4.12162 15.355614,-8.64185 -1.72655,-2.9712 -7.66525,-5.54071 -14.229774,-6.76724 -5.9397,-1.56621 -12.31726,-3.20964 -18.982834,-3.34993 -10.377279,-0.0826 -17.660386,4.40347 -14.411393,8.86847 1.728152,2.59894 6.823331,4.78525 12.397375,6.06483 6.172722,1.77211 12.898692,3.25099 19.871012,3.82572 z" />
    <path
       id="path4868"
       style="fill:#261e14;fill-opacity:1;stroke-width:1.93035;stroke-linecap:round;stroke-linejoin:round"
       d="m 25.499715,115.74797 c 10.516439,0.2568 18.285791,-4.12162 15.355611,-8.64185 -1.726544,-2.97119 -7.665251,-5.5407 -14.229776,-6.76723 -5.939691,-1.56621 -12.31725,-3.20964 -18.9828283,-3.34994 -10.37728,-0.0826 -17.6603847,4.40348 -14.411393,8.86847 1.728152,2.59894 6.823331,4.78524 12.397375,6.06484 6.1727263,1.7721 12.8986903,3.25098 19.8710113,3.82571 z" />
  </g>
</svg>
