<?xml version="1.0" encoding="UTF-8" standalone="no"?>
<!-- Created with Inkscape (http://www.inkscape.org/) -->

<svg
   width="250"
   height="250"
   viewBox="0 0 250 250.00001"
   version="1.1"
   id="svg5"
   inkscape:version="1.2.2 (b0a8486541, 2022-12-01)"
   sodipodi:docname="land.svg"
   xml:space="preserve"
   xmlns:inkscape="http://www.inkscape.org/namespaces/inkscape"
   xmlns:sodipodi="http://sodipodi.sourceforge.net/DTD/sodipodi-0.dtd"
   xmlns="http://www.w3.org/2000/svg"
   xmlns:svg="http://www.w3.org/2000/svg"><sodipodi:namedview
     id="namedview7"
     pagecolor="#ffffff"
     bordercolor="#000000"
     borderopacity="0.25"
     inkscape:showpageshadow="2"
     inkscape:pageopacity="0.0"
     inkscape:pagecheckerboard="0"
     inkscape:deskcolor="#d1d1d1"
     inkscape:document-units="px"
     showgrid="false"
     inkscape:zoom="2.2601823"
     inkscape:cx="88.267216"
     inkscape:cy="102.42537"
     inkscape:window-width="1918"
     inkscape:window-height="1056"
     inkscape:window-x="0"
     inkscape:window-y="22"
     inkscape:window-maximized="1"
     inkscape:current-layer="layer1" /><defs
     id="defs2" /><g
     inkscape:label="Layer 1"
     inkscape:groupmode="layer"
     id="layer1"><rect
       style="fill:#b4d6e6;fill-opacity:1;stroke:none;stroke-width:2;stroke-linecap:round;stroke-linejoin:round"
       id="rect1761"
       width="263.37137"
       height="262.40781"
       x="-2.1541173"
       y="-8.1214228"
       ry="9.121026" /><ellipse
       style="fill:#e5e6e6;fill-opacity:1;stroke:none;stroke-width:2.69388;stroke-linecap:round;stroke-linejoin:round"
       id="path2150"
       cx="205.9583"
       cy="34.787025"
       rx="68.309547"
       ry="68.827126" /><g
       inkscape:label="Layer 1"
       id="layer1-5"
       transform="matrix(1,0,0,1.1578663,-65.060921,-73.802227)"><path
         id="rect6046"
         style="fill:#574435;fill-opacity:1;stroke-width:5.65845;stroke-linecap:square"
         d="m 125.96197,8.0440415 c 7.03168,0 12.69259,3.0618065 12.69259,6.8650375 V 235.09093 c 0,3.80323 -5.66091,6.86503 -12.69259,6.86503 -7.03169,0 -12.6926,-3.0618 -12.6926,-6.86503 V 14.909079 c 0,-3.803231 5.66091,-6.8650375 12.6926,-6.8650375 z" /><path
         id="path6946"
         style="fill:#6c5442;fill-opacity:1;stroke-width:4.59286;stroke-linecap:square"
         d="m 124.21165,13.191143 c 4.83783,0 8.73256,2.931954 8.73256,6.573886 V 230.60884 c 0,3.64192 -3.89473,6.57387 -8.73256,6.57387 -4.83782,0 -8.73256,-2.93195 -8.73256,-6.57387 V 19.765029 c 0,-3.641932 3.89474,-6.573886 8.73256,-6.573886 z" /><path
         id="path6637"
         style="fill:#af9885;fill-opacity:1;stroke-width:1.49073;stroke-linecap:square"
         d="m 116.87359,191.22419 h 1.60091 c 0.34086,0 0.61529,1.1288 0.61529,2.53094 v 36.61307 c 0,1.40215 -0.27443,2.53094 -0.61529,2.53094 h -1.60091 c -0.34086,0 -0.61529,-1.12879 -0.61529,-2.53094 v -36.61307 c 0,-1.40214 0.27443,-2.53094 0.61529,-2.53094 z" /><path
         id="path6641"
         style="fill:#af9885;fill-opacity:1;stroke-width:1.49073;stroke-linecap:square"
         d="m 124.49504,173.7509 h 1.60089 c 0.34087,0 0.6153,1.1288 0.6153,2.53094 v 36.61307 c 0,1.40214 -0.27443,2.53094 -0.6153,2.53094 h -1.60089 c -0.34088,0 -0.6153,-1.1288 -0.6153,-2.53094 v -36.61307 c 0,-1.40214 0.27442,-2.53094 0.6153,-2.53094 z" /><path
         id="path6643"
         style="fill:#af9885;fill-opacity:1;stroke-width:1.49073;stroke-linecap:square"
         d="m 129.66657,122.22438 h 1.60091 c 0.34085,0 0.61529,1.12881 0.61529,2.53094 v 36.61308 c 0,1.40213 -0.27444,2.53094 -0.61529,2.53094 h -1.60091 c -0.34087,0 -0.61529,-1.12881 -0.61529,-2.53094 v -36.61308 c 0,-1.40213 0.27442,-2.53094 0.61529,-2.53094 z" /><path
         id="path6645"
         style="fill:#af9885;fill-opacity:1;stroke-width:1.49073;stroke-linecap:square"
         d="m 119.01657,61.305708 h 1.60091 c 0.34085,0 0.61528,1.128802 0.61528,2.53094 v 36.613072 c 0,1.40214 -0.27443,2.53094 -0.61528,2.53094 h -1.60091 c -0.34088,0 -0.61529,-1.1288 -0.61529,-2.53094 V 63.836648 c 0,-1.402138 0.27441,-2.53094 0.61529,-2.53094 z" /><path
         id="path6647"
         style="fill:#af9885;fill-opacity:1;stroke-width:1.49073;stroke-linecap:square"
         d="m 129.91224,61.485677 h 1.6009 c 0.34087,0 0.61529,1.128803 0.61529,2.530941 v 36.613072 c 0,1.40214 -0.27442,2.53095 -0.61529,2.53095 h -1.6009 c -0.34087,0 -0.61529,-1.12881 -0.61529,-2.53095 V 64.016618 c 0,-1.402138 0.27442,-2.530941 0.61529,-2.530941 z" /><path
         id="path6649"
         style="fill:#af9885;fill-opacity:1;stroke-width:1.49073;stroke-linecap:square"
         d="m 118.35423,129.93473 h 1.6009 c 0.34087,0 0.61529,1.12881 0.61529,2.53094 v 36.61309 c 0,1.40213 -0.27442,2.53093 -0.61529,2.53093 h -1.6009 c -0.34087,0 -0.61529,-1.1288 -0.61529,-2.53093 v -36.61309 c 0,-1.40213 0.27442,-2.53094 0.61529,-2.53094 z" /><path
         id="path6651"
         style="fill:#af9885;fill-opacity:1;stroke-width:1.49073;stroke-linecap:square"
         d="m 133.02071,192.45006 h 1.60091 c 0.34086,0 0.61528,1.12881 0.61528,2.53094 v 36.61307 c 0,1.40214 -0.27442,2.53095 -0.61528,2.53095 h -1.60091 c -0.34088,0 -0.61529,-1.12881 -0.61529,-2.53095 V 194.981 c 0,-1.40213 0.27441,-2.53094 0.61529,-2.53094 z" /></g><g
       inkscape:label="Layer 1"
       id="g2431"
       transform="matrix(1,0,0,1.1578663,52.47653,-74.901088)"><path
         id="path2413"
         style="fill:#574435;fill-opacity:1;stroke-width:5.65845;stroke-linecap:square"
         d="m 125.96197,8.0440415 c 7.03168,0 12.69259,3.0618065 12.69259,6.8650375 V 235.09093 c 0,3.80323 -5.66091,6.86503 -12.69259,6.86503 -7.03169,0 -12.6926,-3.0618 -12.6926,-6.86503 V 14.909079 c 0,-3.803231 5.66091,-6.8650375 12.6926,-6.8650375 z" /><path
         id="path2415"
         style="fill:#6c5442;fill-opacity:1;stroke-width:4.59286;stroke-linecap:square"
         d="m 124.21165,13.191143 c 4.83783,0 8.73256,2.931954 8.73256,6.573886 V 230.60884 c 0,3.64192 -3.89473,6.57387 -8.73256,6.57387 -4.83782,0 -8.73256,-2.93195 -8.73256,-6.57387 V 19.765029 c 0,-3.641932 3.89474,-6.573886 8.73256,-6.573886 z" /><path
         id="path2417"
         style="fill:#af9885;fill-opacity:1;stroke-width:1.49073;stroke-linecap:square"
         d="m 116.87359,191.22419 h 1.60091 c 0.34086,0 0.61529,1.1288 0.61529,2.53094 v 36.61307 c 0,1.40215 -0.27443,2.53094 -0.61529,2.53094 h -1.60091 c -0.34086,0 -0.61529,-1.12879 -0.61529,-2.53094 v -36.61307 c 0,-1.40214 0.27443,-2.53094 0.61529,-2.53094 z" /><path
         id="path2419"
         style="fill:#af9885;fill-opacity:1;stroke-width:1.49073;stroke-linecap:square"
         d="m 124.49504,173.7509 h 1.60089 c 0.34087,0 0.6153,1.1288 0.6153,2.53094 v 36.61307 c 0,1.40214 -0.27443,2.53094 -0.6153,2.53094 h -1.60089 c -0.34088,0 -0.6153,-1.1288 -0.6153,-2.53094 v -36.61307 c 0,-1.40214 0.27442,-2.53094 0.6153,-2.53094 z" /><path
         id="path2421"
         style="fill:#af9885;fill-opacity:1;stroke-width:1.49073;stroke-linecap:square"
         d="m 129.66657,122.22438 h 1.60091 c 0.34085,0 0.61529,1.12881 0.61529,2.53094 v 36.61308 c 0,1.40213 -0.27444,2.53094 -0.61529,2.53094 h -1.60091 c -0.34087,0 -0.61529,-1.12881 -0.61529,-2.53094 v -36.61308 c 0,-1.40213 0.27442,-2.53094 0.61529,-2.53094 z" /><path
         id="path2423"
         style="fill:#af9885;fill-opacity:1;stroke-width:1.49073;stroke-linecap:square"
         d="m 119.01657,61.305708 h 1.60091 c 0.34085,0 0.61528,1.128802 0.61528,2.53094 v 36.613072 c 0,1.40214 -0.27443,2.53094 -0.61528,2.53094 h -1.60091 c -0.34088,0 -0.61529,-1.1288 -0.61529,-2.53094 V 63.836648 c 0,-1.402138 0.27441,-2.53094 0.61529,-2.53094 z" /><path
         id="path2425"
         style="fill:#af9885;fill-opacity:1;stroke-width:1.49073;stroke-linecap:square"
         d="m 129.91224,61.485677 h 1.6009 c 0.34087,0 0.61529,1.128803 0.61529,2.530941 v 36.613072 c 0,1.40214 -0.27442,2.53095 -0.61529,2.53095 h -1.6009 c -0.34087,0 -0.61529,-1.12881 -0.61529,-2.53095 V 64.016618 c 0,-1.402138 0.27442,-2.530941 0.61529,-2.530941 z" /><path
         id="path2427"
         style="fill:#af9885;fill-opacity:1;stroke-width:1.49073;stroke-linecap:square"
         d="m 118.35423,129.93473 h 1.6009 c 0.34087,0 0.61529,1.12881 0.61529,2.53094 v 36.61309 c 0,1.40213 -0.27442,2.53093 -0.61529,2.53093 h -1.6009 c -0.34087,0 -0.61529,-1.1288 -0.61529,-2.53093 v -36.61309 c 0,-1.40213 0.27442,-2.53094 0.61529,-2.53094 z" /><path
         id="path2429"
         style="fill:#af9885;fill-opacity:1;stroke-width:1.49073;stroke-linecap:square"
         d="m 133.02071,192.45006 h 1.60091 c 0.34086,0 0.61528,1.12881 0.61528,2.53094 v 36.61307 c 0,1.40214 -0.27442,2.53095 -0.61528,2.53095 h -1.60091 c -0.34088,0 -0.61529,-1.12881 -0.61529,-2.53095 V 194.981 c 0,-1.40213 0.27441,-2.53094 0.61529,-2.53094 z" /></g><path
       id="rect6100"
       style="fill:#29442d;fill-opacity:1;stroke-width:9.93516;stroke-linecap:square"
       d="m 170.34651,175.11537 c -8.68616,-0.87158 -17.33138,-8.21066 -26.21082,-7.86944 -6.80076,0.26133 -13.9252,8.37053 -20.19079,7.24726 -14.88957,-2.66936 -27.877368,-13.42673 -40.117082,-10.39586 -9.511791,2.35537 -17.185154,13.53515 -25.878563,15.59563 -11.075293,2.62504 -22.827287,-3.87581 -31.526969,-0.71918 -8.997284,3.26461 -7.958834,15.20285 -14.622393,19.72963 -9.5719843,6.50257 -21.805032,12.09113 -25.222982,24.67769 -34.745395,78.11066 67.527796,52.88036 156.887609,52.88036 98.38358,-4.039 181.32608,28.80724 126.96779,-48.26574 -13.61727,-23.97306 -23.97867,-33.84793 -35.55232,-43.22295 -5.3217,-4.31074 -8.82416,-13.95626 -16.71756,-15.11887 -3.83591,-0.56498 -13.76894,10.07581 -18.22984,9.6618 -8.70613,-0.80801 -17.53048,-3.45695 -29.58608,-4.20033 z"
       sodipodi:nodetypes="csssssscccsssc" /><path
       id="path2480"
       style="fill:#314e33;fill-opacity:1;stroke-width:9.07017;stroke-linecap:square"
       d="m 168.31635,181.84194 c -8.20564,-0.76895 -16.3726,-7.24393 -24.76083,-6.94289 -6.42454,0.23057 -13.15485,7.38498 -19.07382,6.39397 -14.06588,-2.35507 -26.335184,-11.84586 -37.897791,-9.17184 -8.985594,2.07804 -16.234463,11.9415 -24.446949,13.75938 -10.462602,2.31597 -21.564471,-3.41946 -29.782882,-0.6345 -8.49955,2.88023 -7.518548,13.41285 -13.813476,17.40665 -9.0424575,5.73695 -20.5987673,10.66751 -23.8276348,21.77212 -32.8232632,68.91384 63.7921268,46.65418 148.2085128,46.65418 92.94096,-3.56345 171.29504,25.41545 119.94387,-42.58289 -12.86395,-21.15046 -22.65215,-29.86265 -33.58554,-38.13385 -5.02731,-3.80319 -8.33601,-12.31304 -15.79274,-13.33876 -3.62371,-0.49846 -13.00724,8.88948 -17.22136,8.52421 -8.2245,-0.71288 -16.56068,-3.04993 -27.94936,-3.70578 z"
       sodipodi:nodetypes="csssssscccsssc" /><path
       id="path6944"
       style="fill:#457d48;fill-opacity:1;stroke-width:0.88891;stroke-linecap:square"
       d="m 25.399922,231.73091 c -6.304208,-3.18723 -14.814575,4.74795 -19.4289311,9.07065 -4.8367258,4.53101 -13.6853578,12.85908 -6.9816057,16.11056 6.2713714,3.04176 14.2908758,-4.87473 18.8381118,-9.10237 4.886123,-4.54271 14.214938,-12.72058 7.572425,-16.07884 z"
       sodipodi:nodetypes="aaaaa" /><path
       id="path1188"
       style="fill:#457d48;fill-opacity:1;stroke-width:0.88891;stroke-linecap:square"
       d="m 21.764508,209.96637 c -6.304207,-3.18723 -14.8145759,4.74795 -19.4289309,9.07065 -4.8367261,4.53101 -13.6853581,12.85909 -6.9816058,16.11056 6.2713711,3.04176 14.2908756,-4.87473 18.8381117,-9.10237 4.886123,-4.54271 14.214937,-12.72058 7.572425,-16.07884 z"
       sodipodi:nodetypes="aaaaa" /><path
       id="path1190"
       style="fill:#457d48;fill-opacity:1;stroke-width:0.88891;stroke-linecap:square"
       d="m 39.164294,253.53887 c -6.304214,-3.18722 -14.814583,4.74795 -19.428938,9.07066 -4.836726,4.53101 -13.6853568,12.85909 -6.981605,16.11056 6.271371,3.04176 14.290875,-4.87473 18.838111,-9.10237 4.886123,-4.54271 14.214942,-12.72059 7.572432,-16.07885 z"
       sodipodi:nodetypes="aaaaa" /><path
       id="path1192"
       style="fill:#457d48;fill-opacity:1;stroke-width:0.88891;stroke-linecap:square"
       d="m 59.913799,188.55718 c -6.304215,-3.18722 -14.814584,4.74795 -19.428939,9.07066 -4.836726,4.53101 -13.685357,12.85909 -6.981606,16.11056 6.271372,3.04176 14.290876,-4.87473 18.838113,-9.10237 4.886122,-4.54271 14.214941,-12.72059 7.572432,-16.07885 z"
       sodipodi:nodetypes="aaaaa" /><path
       id="path1194"
       style="fill:#457d48;fill-opacity:1;stroke-width:0.88891;stroke-linecap:square"
       d="m 64.522244,213.19797 c -6.304215,-3.18722 -14.814584,4.74795 -19.428939,9.07066 -4.836726,4.53101 -13.685357,12.85909 -6.981606,16.11056 6.271371,3.04176 14.290876,-4.87473 18.838112,-9.10237 4.886123,-4.54271 14.214942,-12.72059 7.572433,-16.07885 z"
       sodipodi:nodetypes="aaaaa" /><path
       id="path1196"
       style="fill:#457d48;fill-opacity:1;stroke-width:0.88891;stroke-linecap:square"
       d="m 101.45059,184.90607 c -6.304206,-3.18722 -14.814575,4.74795 -19.42893,9.07066 -4.836726,4.53101 -13.685357,12.85909 -6.981606,16.11056 6.271371,3.04176 14.290876,-4.87473 18.838112,-9.10237 4.886129,-4.54271 14.214934,-12.72059 7.572424,-16.07885 z"
       sodipodi:nodetypes="aaaaa" /><path
       id="path1198"
       style="fill:#457d48;fill-opacity:1;stroke-width:0.88891;stroke-linecap:square"
       d="m 80.47407,236.15649 c -6.30421,-3.18722 -14.814579,4.74795 -19.428934,9.07066 -4.836726,4.53101 -13.685357,12.85909 -6.981606,16.11056 6.271371,3.04176 14.290876,-4.87473 18.838112,-9.10237 4.886129,-4.54271 14.214938,-12.72059 7.572428,-16.07885 z"
       sodipodi:nodetypes="aaaaa" /><path
       id="path1200"
       style="fill:#457d48;fill-opacity:1;stroke-width:0.88891;stroke-linecap:square"
       d="m 117.35853,203.21038 c -6.3042,-3.18722 -14.81457,4.74795 -19.428933,9.07066 -4.836732,4.53101 -13.685357,12.85909 -6.981599,16.11056 6.271375,3.04176 14.290862,-4.87473 18.838112,-9.10237 4.88612,-4.54271 14.21493,-12.72059 7.57242,-16.07885 z"
       sodipodi:nodetypes="aaaaa" /><path
       id="path1202"
       style="fill:#457d48;fill-opacity:1;stroke-width:0.88891;stroke-linecap:square"
       d="m 137.81649,246.07272 c -6.30421,-3.18722 -14.81457,4.74795 -19.42894,9.07066 -4.83672,4.53101 -13.68535,12.85909 -6.98159,16.11056 6.27137,3.04176 14.29086,-4.87473 18.8381,-9.10237 4.88613,-4.54271 14.21494,-12.72059 7.57243,-16.07885 z"
       sodipodi:nodetypes="aaaaa" /><path
       id="path1204"
       style="fill:#457d48;fill-opacity:1;stroke-width:0.88891;stroke-linecap:square"
       d="m 187.17238,204.42784 c -6.3042,-3.18722 -14.81457,4.74795 -19.42893,9.07066 -4.83673,4.53101 -13.68536,12.85909 -6.9816,16.11056 6.27137,3.04176 14.29087,-4.87473 18.83811,-9.10237 4.88612,-4.54271 14.21493,-12.72059 7.57242,-16.07885 z"
       sodipodi:nodetypes="aaaaa" /><path
       id="path1206"
       style="fill:#457d48;fill-opacity:1;stroke-width:0.88891;stroke-linecap:square"
       d="m 153.9992,179.07364 c -6.30421,-3.18722 -14.81457,4.74796 -19.42894,9.07067 -4.83672,4.53101 -13.68535,12.85909 -6.98159,16.11056 6.27137,3.04176 14.29086,-4.87473 18.8381,-9.10237 4.88613,-4.54271 14.21494,-12.72059 7.57243,-16.07886 z"
       sodipodi:nodetypes="aaaaa" /><path
       id="path1208"
       style="fill:#457d48;fill-opacity:1;stroke-width:0.88891;stroke-linecap:square"
       d="m 114.09473,231.27978 c -6.3042,-3.18722 -14.814569,4.74796 -19.428937,9.07067 -4.836728,4.53101 -13.685356,12.85909 -6.981596,16.11056 6.271371,3.04176 14.290873,-4.87473 18.838113,-9.10237 4.88612,-4.54271 14.21493,-12.72059 7.57242,-16.07886 z"
       sodipodi:nodetypes="aaaaa" /><path
       id="path1210"
       style="fill:#457d48;fill-opacity:1;stroke-width:0.88891;stroke-linecap:square"
       d="m 148.85963,211.07102 c -6.30421,-3.18722 -14.81457,4.74795 -19.42893,9.07066 -4.83673,4.53101 -13.68536,12.85909 -6.9816,16.11056 6.27137,3.04176 14.29086,-4.87473 18.8381,-9.10237 4.88613,-4.54271 14.21494,-12.72059 7.57243,-16.07885 z"
       sodipodi:nodetypes="aaaaa" /><path
       id="path1212"
       style="fill:#457d48;fill-opacity:1;stroke-width:0.88891;stroke-linecap:square"
       d="m 176.10326,239.17563 c -6.3042,-3.18722 -14.81457,4.74795 -19.42893,9.07066 -4.83673,4.53101 -13.68536,12.85909 -6.98159,16.11056 6.27137,3.04176 14.29086,-4.87473 18.8381,-9.10237 4.88612,-4.54271 14.21493,-12.72059 7.57242,-16.07885 z"
       sodipodi:nodetypes="aaaaa" /><path
       id="path1214"
       style="fill:#457d48;fill-opacity:1;stroke-width:0.88891;stroke-linecap:square"
       d="m 219.77435,189.17761 c -6.30421,-3.18722 -14.81457,4.74795 -19.42894,9.07066 -4.83672,4.53101 -13.68535,12.85909 -6.98159,16.11056 6.27137,3.04176 14.29086,-4.87473 18.8381,-9.10237 4.88613,-4.54271 14.21494,-12.72059 7.57243,-16.07885 z"
       sodipodi:nodetypes="aaaaa" /><path
       id="path1216"
       style="fill:#457d48;fill-opacity:1;stroke-width:0.88891;stroke-linecap:square"
       d="m 178.67385,183.04826 c -6.3042,-3.18722 -14.81457,4.74795 -19.42893,9.07066 -4.83673,4.53101 -13.68536,12.85909 -6.9816,16.11056 6.27137,3.04176 14.29087,-4.87473 18.83811,-9.10237 4.88612,-4.54271 14.21493,-12.72059 7.57242,-16.07885 z"
       sodipodi:nodetypes="aaaaa" /><path
       id="path1218"
       style="fill:#457d48;fill-opacity:1;stroke-width:0.88891;stroke-linecap:square"
       d="m 209.15396,217.65371 c -6.3042,-3.18721 -14.81457,4.74795 -19.42893,9.07066 -4.83673,4.53101 -13.68536,12.85909 -6.9816,16.11056 6.27137,3.04176 14.29086,-4.87473 18.83811,-9.10237 4.88612,-4.54271 14.21493,-12.72059 7.57242,-16.07885 z"
       sodipodi:nodetypes="aaaaa" /><path
       id="path1220"
       style="fill:#457d48;fill-opacity:1;stroke-width:0.88891;stroke-linecap:square"
       d="m 242.62479,231.7255 c -6.3042,-3.18721 -14.81457,4.74795 -19.42893,9.07066 -4.83673,4.53101 -13.68535,12.85909 -6.98159,16.11056 6.27137,3.04176 14.29086,-4.87473 18.8381,-9.10237 4.88612,-4.54271 14.21493,-12.72059 7.57242,-16.07885 z"
       sodipodi:nodetypes="aaaaa" /><path
       id="path1222"
       style="fill:#457d48;fill-opacity:1;stroke-width:0.88891;stroke-linecap:square"
       d="m 202.30709,247.72068 c -6.3042,-3.18721 -14.81457,4.74795 -19.42893,9.07066 -4.83673,4.53101 -13.68536,12.85909 -6.9816,16.11056 6.27137,3.04176 14.29086,-4.87473 18.83811,-9.10237 4.88612,-4.54271 14.21493,-12.72059 7.57242,-16.07885 z"
       sodipodi:nodetypes="aaaaa" /><path
       id="path1224"
       style="fill:#457d48;fill-opacity:1;stroke-width:0.88891;stroke-linecap:square"
       d="m 252.26309,251.0088 c -6.3042,-3.18721 -14.81457,4.74795 -19.42893,9.07066 -4.83673,4.53101 -13.68536,12.85909 -6.9816,16.11056 6.27138,3.04176 14.29087,-4.87473 18.83811,-9.10237 4.88612,-4.54271 14.21493,-12.72059 7.57242,-16.07885 z"
       sodipodi:nodetypes="aaaaa" /></g></svg>
