<?xml version="1.0" encoding="UTF-8" standalone="no"?>
<!-- Created with Inkscape (http://www.inkscape.org/) -->

<svg
   width="250"
   height="250"
   viewBox="0 0 250 250.00001"
   version="1.1"
   id="svg5"
   inkscape:version="1.2.2 (b0a8486541, 2022-12-01)"
   sodipodi:docname="potatoplusplus.svg"
   xmlns:inkscape="http://www.inkscape.org/namespaces/inkscape"
   xmlns:sodipodi="http://sodipodi.sourceforge.net/DTD/sodipodi-0.dtd"
   xmlns="http://www.w3.org/2000/svg"
   xmlns:svg="http://www.w3.org/2000/svg">
  <sodipodi:namedview
     id="namedview7"
     pagecolor="#ffffff"
     bordercolor="#000000"
     borderopacity="0.25"
     inkscape:showpageshadow="2"
     inkscape:pageopacity="0.0"
     inkscape:pagecheckerboard="0"
     inkscape:deskcolor="#d1d1d1"
     inkscape:document-units="px"
     showgrid="false"
     inkscape:zoom="1.5981902"
     inkscape:cx="174.88532"
     inkscape:cy="94.169017"
     inkscape:window-width="1918"
     inkscape:window-height="1056"
     inkscape:window-x="0"
     inkscape:window-y="22"
     inkscape:window-maximized="1"
     inkscape:current-layer="layer1" />
  <defs
     id="defs2" />
  <g
     inkscape:label="Layer 1"
     inkscape:groupmode="layer"
     id="layer1">
    <rect
       style="fill:#725942;fill-opacity:1;stroke-width:12;stroke-linecap:square"
       id="rect1134"
       width="250"
       height="250"
       x="0"
       y="0" />
    <path
       id="rect1150"
       style="fill:#c9986e;stroke-width:10.7283;stroke-linecap:square;fill-opacity:1"
       d="m 100.10374,53.246337 69.79251,-20 c 24.9546,-7.151082 54.00849,21.902811 46.85741,46.857407 l -20,69.792506 c -7.15108,24.9546 -21.90281,39.70633 -46.85741,46.85741 l -69.792506,20 C 55.149148,223.90474 26.095255,194.85085 33.246337,169.89625 l 20,-69.79251 C 60.397418,75.149147 75.149147,60.397418 100.10374,53.246337 Z"
       sodipodi:nodetypes="sssssssss" />
    <g
       aria-label="Potato++"
       transform="matrix(0.68922792,-0.72544942,0.68922792,0.72544942,0.56309843,4.5533416)"
       id="text236"
       style="font-weight:bold;font-size:49.2123px;font-family:Cantarell;-inkscape-font-specification:'Cantarell Bold';fill:#ffffff;stroke-width:4.46426;stroke-linecap:square">
      <path
         d="m -86.87336,189.93394 h 6.348387 V 161.3416 h 4.773593 c 4.183045,0 6.988147,2.55904 6.988147,6.3976 0,3.64171 -2.312979,5.70862 -6.348387,5.70862 h -7.775543 v 5.56099 h 6.64366 c 8.415303,0 14.074718,-4.8228 14.074718,-12.05701 0,-6.88972 -5.019655,-11.17119 -12.992047,-11.17119 H -86.87336 Z"
         id="path1490" />
      <path
         d="m -47.011407,190.42607 c 7.529482,0 12.647561,-5.11808 12.647561,-12.7952 0,-7.33263 -4.675168,-12.10623 -11.909376,-12.10623 -7.578695,0 -12.598349,5.11808 -12.598349,12.84441 0,7.28342 4.625956,12.05702 11.860164,12.05702 z m 0.541335,-5.26572 c -3.690922,0 -6.053112,-2.85431 -6.053112,-7.33263 0,-4.28147 2.165341,-6.98815 5.708626,-6.98815 3.690923,0 6.053113,2.90353 6.053113,7.38185 0,4.28147 -2.165341,6.93893 -5.708627,6.93893 z"
         id="path1492" />
      <path
         d="m -19.304849,190.27843 c 1.673219,0 3.395649,-0.29527 4.970442,-0.83661 l -1.279519,-4.47832 c -0.688972,0.29527 -1.574794,0.44291 -2.312978,0.44291 -2.263766,0 -3.690923,-1.32873 -3.690923,-3.34644 l 0,-22.98214 h -6.200749 l 0,23.32663 c 0,4.87202 3.198799,7.87397 8.513727,7.87397 z M -31.1158,171.03642 h 15.551086 v -5.01965 H -31.1158 Z"
         id="path1494" />
      <path
         d="m 5.1044225,189.93394 h 4.478319 l 0,-14.36999 c 0,-6.44681 -3.690922,-10.03931 -10.7282811,-10.03931 -3.444861,0 -7.0865711,0.88582 -9.8916724,2.31298 l 1.4763692,4.3799 c 2.5098272,-0.98425 4.8720176,-1.47637 7.0865711,-1.47637 3.8385593,0 5.9054759,1.47637 5.9054759,4.33068 l 0,10.28537 z m -8.366091,0.49213 c 5.265716,0 9.104276,-3.00195 10.236158,-8.16925 l -2.017704,-0.93503 c -0.8366091,2.55904 -3.2480118,4.18305 -6.1515374,4.18305 -2.4114027,0 -4.0354086,-1.23031 -4.0354086,-3.00195 0,-2.31298 2.8051011,-3.24802 9.694823,-3.24802 v -3.49407 c -11.0727674,0 -15.9939975,2.31298 -15.9939975,7.57869 0,4.28147 3.248012,7.08658 8.2676665,7.08658 z"
         id="path1496" />
      <path
         d="m 25.67517,190.27843 c 1.673218,0 3.395649,-0.29527 4.970442,-0.83661 l -1.27952,-4.47832 c -0.688972,0.29527 -1.574793,0.44291 -2.312978,0.44291 -2.263765,0 -3.690922,-1.32873 -3.690922,-3.34644 l 0,-22.98214 h -6.20075 l 0,23.32663 c 0,4.87202 3.1988,7.87397 8.513728,7.87397 z M 13.864218,171.03642 h 15.551087 v -5.01965 H 13.864218 Z"
         id="path1498" />
      <path
         d="m 45.458486,190.42607 c 7.529481,0 12.64756,-5.11808 12.64756,-12.7952 0,-7.33263 -4.675168,-12.10623 -11.909376,-12.10623 -7.578694,0 -12.598349,5.11808 -12.598349,12.84441 0,7.28342 4.625957,12.05702 11.860165,12.05702 z m 0.541335,-5.26572 c -3.690923,0 -6.053113,-2.85431 -6.053113,-7.33263 0,-4.28147 2.165341,-6.98815 5.708627,-6.98815 3.690922,0 6.053113,2.90353 6.053113,7.38185 0,4.28147 -2.165342,6.93893 -5.708627,6.93893 z"
         id="path1500" />
      <path
         d="m 71.639472,185.40641 h 6.102325 v -23.37584 h -6.102325 z m -8.661365,-8.75979 H 86.35395 v -5.95469 H 62.978107 Z"
         id="path1502" />
      <path
         d="m 100.67473,185.40641 h 6.10233 v -23.37584 h -6.10233 z m -8.661359,-8.75979 h 23.375839 v -5.95469 H 92.013371 Z"
         id="path1504" />
    </g>
  </g>
</svg>
