<?xml version="1.0" encoding="UTF-8" standalone="no"?>
<!-- Created with Inkscape (http://www.inkscape.org/) -->

<svg
   width="250"
   height="250"
   viewBox="0 0 250 250.00001"
   version="1.1"
   id="svg5"
   inkscape:version="1.2.2 (b0a8486541, 2022-12-01)"
   sodipodi:docname="stone.svg"
   xmlns:inkscape="http://www.inkscape.org/namespaces/inkscape"
   xmlns:sodipodi="http://sodipodi.sourceforge.net/DTD/sodipodi-0.dtd"
   xmlns="http://www.w3.org/2000/svg"
   xmlns:svg="http://www.w3.org/2000/svg">
  <sodipodi:namedview
     id="namedview7"
     pagecolor="#ffffff"
     bordercolor="#000000"
     borderopacity="0.25"
     inkscape:showpageshadow="2"
     inkscape:pageopacity="0.0"
     inkscape:pagecheckerboard="0"
     inkscape:deskcolor="#d1d1d1"
     inkscape:document-units="px"
     showgrid="false"
     inkscape:zoom="2.2601823"
     inkscape:cx="86.497447"
     inkscape:cy="105.52246"
     inkscape:window-width="1918"
     inkscape:window-height="1056"
     inkscape:window-x="0"
     inkscape:window-y="22"
     inkscape:window-maximized="1"
     inkscape:current-layer="layer1" />
  <defs
     id="defs2" />
  <g
     inkscape:label="Layer 1"
     inkscape:groupmode="layer"
     id="layer1">
    <path
       id="rect6100"
       style="fill:#676875;fill-opacity:1;stroke-width:8.10529;stroke-linecap:square"
       d="M 149.94846,75.606263 C 84.120407,66.094202 34.942844,70.220358 25.016851,122.8591 1.3959785,199.33054 70.924098,174.62972 131.67335,174.62972 198.5572,170.67548 254.94379,202.83241 217.98953,127.37688 198.36973,77.635446 189.77805,79.143137 149.94846,75.606263 Z"
       sodipodi:nodetypes="ccccc" />
    <path
       id="path6944"
       style="fill:#86899a;fill-opacity:1;stroke-width:6.77945;stroke-linecap:square"
       d="M 154.5822,79.918883 C 99.52219,71.96279 58.388997,75.413994 50.086692,119.4422 c -19.757018,63.9624 38.397804,43.30209 89.209838,43.30209 55.94312,-3.30742 103.10611,23.58935 72.19675,-39.52331 C 195.08283,81.616141 187.89655,82.877205 154.5822,79.918883 Z"
       sodipodi:nodetypes="ccccc" />
    <path
       id="path2132"
       style="fill:#a9adc3;fill-opacity:1;stroke-width:0.791319;stroke-linecap:square"
       d="m 164.1034,95.507869 c 7.50179,-4.696675 17.3592,7.363851 21.96111,14.924151 5.13285,8.43256 12.08009,24.45989 3.53544,29.4039 -7.69015,4.44959 -16.81115,-8.31347 -21.35715,-15.94702 -4.89177,-8.21416 -12.24272,-23.30775 -4.1394,-28.381031 z"
       sodipodi:nodetypes="aaaaa" />
    <path
       id="path2497"
       style="fill:#a9adc3;fill-opacity:1;stroke-width:0.173974;stroke-linecap:square"
       d="m 152.59564,118.60095 c 1.67488,-1.31669 4.48522,1.04669 5.77212,2.74456 1.10473,1.45753 2.40728,4.33026 0.92924,5.4074 -1.70611,1.24335 -4.34009,-1.24878 -5.61338,-2.93266 -1.07188,-1.41753 -2.48511,-4.12096 -1.08798,-5.2193 z"
       sodipodi:nodetypes="aaaaa" />
    <path
       id="path2550"
       style="fill:#a9adc3;fill-opacity:1;stroke-width:0.443018;stroke-linecap:square"
       d="m 131.53218,94.488903 c 2.72093,-4.83921 11.85093,-2.056108 16.63797,0.755593 3.88461,2.281648 9.4619,7.650614 7.11076,11.493554 -2.86516,4.68311 -11.67938,1.43792 -16.41568,-1.33843 -3.78038,-2.216 -9.4807,-7.091094 -7.33305,-10.910717 z"
       sodipodi:nodetypes="aaaaa" />
    <path
       id="path2552"
       style="fill:#a9adc3;fill-opacity:1;stroke-width:0.276886;stroke-linecap:square"
       d="m 195.92301,100.43144 c 2.78861,-1.138211 4.65398,4.15522 5.77212,6.95194 1.69882,4.24911 5.21615,12.09585 0.92924,13.69688 -2.90745,1.08585 -4.50667,-4.52882 -5.61338,-7.42839 -1.57673,-4.13103 -5.18181,-11.54948 -1.08798,-13.22043 z"
       sodipodi:nodetypes="aaaaa" />
    <path
       id="path2554"
       style="fill:#a9adc3;fill-opacity:1;stroke-width:0.173974;stroke-linecap:square"
       d="m 176.67594,89.293911 c 1.67488,-1.316687 4.48522,1.046685 5.77212,2.74456 1.10473,1.457531 2.40728,4.33026 0.92924,5.4074 -1.70611,1.24335 -4.34009,-1.248778 -5.61338,-2.93266 -1.07188,-1.417526 -2.48511,-4.120964 -1.08798,-5.2193 z"
       sodipodi:nodetypes="aaaaa" />
    <path
       id="path2556"
       style="fill:#a9adc3;fill-opacity:1;stroke-width:0.173974;stroke-linecap:square"
       d="m 151.7544,84.420492 c 1.67488,-1.316687 4.48522,1.046685 5.77212,2.74456 1.10473,1.457532 2.40728,4.330261 0.92924,5.407402 -1.70611,1.24335 -4.34009,-1.248779 -5.61338,-2.932662 -1.07188,-1.417526 -2.48511,-4.120964 -1.08798,-5.2193 z"
       sodipodi:nodetypes="aaaaa" />
    <path
       id="path2558"
       style="fill:#a9adc3;fill-opacity:1;stroke-width:0.173974;stroke-linecap:square"
       d="m 132.56837,80.0025 c 1.67488,-1.316687 4.48522,1.046685 5.77212,2.74456 1.10473,1.457532 2.40728,4.330261 0.92924,5.407402 -1.70611,1.24335 -4.34009,-1.248779 -5.61338,-2.932662 -1.07188,-1.417526 -2.48511,-4.120964 -1.08798,-5.2193 z"
       sodipodi:nodetypes="aaaaa" />
    <path
       id="path2560"
       style="fill:#a9adc3;fill-opacity:1;stroke-width:0.295347;stroke-linecap:square"
       d="m 192.6313,139.80834 c 2.79976,-1.77012 6.52219,2.70771 8.25644,5.52983 1.91551,3.11708 4.48791,9.04899 1.32919,10.89503 -2.86904,1.67674 -6.31617,-3.06144 -8.02938,-5.90884 -1.82686,-3.03629 -4.55136,-8.62239 -1.55625,-10.51602 z"
       sodipodi:nodetypes="aaaaa" />
    <path
       id="path2562"
       style="fill:#a9adc3;fill-opacity:1;stroke-width:0.173974;stroke-linecap:square"
       d="m 159.00615,139.76399 c 1.67488,-1.31669 4.48522,1.04669 5.77212,2.74456 1.10473,1.45753 2.40728,4.33027 0.92924,5.40741 -1.70611,1.24335 -4.34009,-1.24879 -5.61338,-2.93267 -1.07188,-1.41753 -2.48511,-4.12096 -1.08798,-5.2193 z"
       sodipodi:nodetypes="aaaaa" />
    <path
       id="path2564"
       style="fill:#a9adc3;fill-opacity:1;stroke-width:0.27786;stroke-linecap:square"
       d="m 110.43363,85.636609 c 2.95413,-4.024656 10.81362,-0.359524 14.72379,2.74456 1.54139,1.223636 3.6076,3.876923 2.37035,5.40741 -3.06291,3.788839 -10.41701,-0.0151 -14.31887,-2.93267 -1.57805,-1.17997 -3.9412,-3.630849 -2.77527,-5.2193 z"
       sodipodi:nodetypes="aaaaa" />
  </g>
</svg>
