<?xml version="1.0" encoding="UTF-8" standalone="no"?>
<!-- Created with Inkscape (http://www.inkscape.org/) -->

<svg
   width="250"
   height="250"
   viewBox="0 0 250 250.00001"
   version="1.1"
   id="svg5"
   inkscape:version="1.2.2 (b0a8486541, 2022-12-01)"
   sodipodi:docname="wood.svg"
   xmlns:inkscape="http://www.inkscape.org/namespaces/inkscape"
   xmlns:sodipodi="http://sodipodi.sourceforge.net/DTD/sodipodi-0.dtd"
   xmlns="http://www.w3.org/2000/svg"
   xmlns:svg="http://www.w3.org/2000/svg">
  <sodipodi:namedview
     id="namedview7"
     pagecolor="#ffffff"
     bordercolor="#000000"
     borderopacity="0.25"
     inkscape:showpageshadow="2"
     inkscape:pageopacity="0.0"
     inkscape:pagecheckerboard="0"
     inkscape:deskcolor="#d1d1d1"
     inkscape:document-units="px"
     showgrid="false"
     inkscape:zoom="3.1963805"
     inkscape:cx="66.32502"
     inkscape:cy="103.71106"
     inkscape:window-width="1918"
     inkscape:window-height="1056"
     inkscape:window-x="0"
     inkscape:window-y="22"
     inkscape:window-maximized="1"
     inkscape:current-layer="layer1" />
  <defs
     id="defs2" />
  <g
     inkscape:label="Layer 1"
     inkscape:groupmode="layer"
     id="layer1">
    <path
       id="rect6046"
       style="fill:#574435;fill-opacity:1;stroke-width:5.65845;stroke-linecap:square"
       d="m 125.96197,8.0440415 c 7.03168,0 12.69259,3.0618065 12.69259,6.8650375 V 235.09093 c 0,3.80323 -5.66091,6.86503 -12.69259,6.86503 -7.03169,0 -12.6926,-3.0618 -12.6926,-6.86503 V 14.909079 c 0,-3.803231 5.66091,-6.8650375 12.6926,-6.8650375 z" />
    <path
       id="path6946"
       style="fill:#6c5442;fill-opacity:1;stroke-width:4.59286;stroke-linecap:square"
       d="m 124.21165,13.191143 c 4.83783,0 8.73256,2.931954 8.73256,6.573886 V 230.60884 c 0,3.64192 -3.89473,6.57387 -8.73256,6.57387 -4.83782,0 -8.73256,-2.93195 -8.73256,-6.57387 V 19.765029 c 0,-3.641932 3.89474,-6.573886 8.73256,-6.573886 z" />
    <path
       id="path6637"
       style="fill:#af9885;fill-opacity:1;stroke-width:1.49073;stroke-linecap:square"
       d="m 116.87359,191.22419 h 1.60091 c 0.34086,0 0.61529,1.1288 0.61529,2.53094 v 36.61307 c 0,1.40215 -0.27443,2.53094 -0.61529,2.53094 h -1.60091 c -0.34086,0 -0.61529,-1.12879 -0.61529,-2.53094 v -36.61307 c 0,-1.40214 0.27443,-2.53094 0.61529,-2.53094 z" />
    <path
       id="path6641"
       style="fill:#af9885;fill-opacity:1;stroke-width:1.49073;stroke-linecap:square"
       d="m 124.49504,173.7509 h 1.60089 c 0.34087,0 0.6153,1.1288 0.6153,2.53094 v 36.61307 c 0,1.40214 -0.27443,2.53094 -0.6153,2.53094 h -1.60089 c -0.34088,0 -0.6153,-1.1288 -0.6153,-2.53094 v -36.61307 c 0,-1.40214 0.27442,-2.53094 0.6153,-2.53094 z" />
    <path
       id="path6643"
       style="fill:#af9885;fill-opacity:1;stroke-width:1.49073;stroke-linecap:square"
       d="m 129.66657,122.22438 h 1.60091 c 0.34085,0 0.61529,1.12881 0.61529,2.53094 v 36.61308 c 0,1.40213 -0.27444,2.53094 -0.61529,2.53094 h -1.60091 c -0.34087,0 -0.61529,-1.12881 -0.61529,-2.53094 v -36.61308 c 0,-1.40213 0.27442,-2.53094 0.61529,-2.53094 z" />
    <path
       id="path6645"
       style="fill:#af9885;fill-opacity:1;stroke-width:1.49073;stroke-linecap:square"
       d="m 119.01657,61.305708 h 1.60091 c 0.34085,0 0.61528,1.128802 0.61528,2.53094 v 36.613072 c 0,1.40214 -0.27443,2.53094 -0.61528,2.53094 h -1.60091 c -0.34088,0 -0.61529,-1.1288 -0.61529,-2.53094 V 63.836648 c 0,-1.402138 0.27441,-2.53094 0.61529,-2.53094 z" />
    <path
       id="path6647"
       style="fill:#af9885;fill-opacity:1;stroke-width:1.49073;stroke-linecap:square"
       d="m 129.91224,61.485677 h 1.6009 c 0.34087,0 0.61529,1.128803 0.61529,2.530941 v 36.613072 c 0,1.40214 -0.27442,2.53095 -0.61529,2.53095 h -1.6009 c -0.34087,0 -0.61529,-1.12881 -0.61529,-2.53095 V 64.016618 c 0,-1.402138 0.27442,-2.530941 0.61529,-2.530941 z" />
    <path
       id="path6649"
       style="fill:#af9885;fill-opacity:1;stroke-width:1.49073;stroke-linecap:square"
       d="m 118.35423,129.93473 h 1.6009 c 0.34087,0 0.61529,1.12881 0.61529,2.53094 v 36.61309 c 0,1.40213 -0.27442,2.53093 -0.61529,2.53093 h -1.6009 c -0.34087,0 -0.61529,-1.1288 -0.61529,-2.53093 v -36.61309 c 0,-1.40213 0.27442,-2.53094 0.61529,-2.53094 z" />
    <path
       id="path6651"
       style="fill:#af9885;fill-opacity:1;stroke-width:1.49073;stroke-linecap:square"
       d="m 133.02071,192.45006 h 1.60091 c 0.34086,0 0.61528,1.12881 0.61528,2.53094 v 36.61307 c 0,1.40214 -0.27442,2.53095 -0.61528,2.53095 h -1.60091 c -0.34088,0 -0.61529,-1.12881 -0.61529,-2.53095 V 194.981 c 0,-1.40213 0.27441,-2.53094 0.61529,-2.53094 z" />
  </g>
</svg>
